<svg width="512" height="512" viewBox="0 0 512 512" fill="none" xmlns="http://www.w3.org/2000/svg">
<path d="M384.8 271.4C394.581 263.857 402.482 254.151 407.885 243.043C413.288 231.935 416.045 219.727 415.94 207.376C415.836 195.024 412.873 182.865 407.284 171.85C401.694 160.835 393.63 151.264 383.723 143.887C373.816 136.51 362.335 131.527 350.18 129.329C338.026 127.13 325.527 127.777 313.664 131.217C301.8 134.657 290.895 140.797 281.801 149.156C272.708 157.516 265.674 167.867 261.25 179.4" fill="#C9A215"/>
<path d="M384.8 271.4C394.581 263.857 402.482 254.151 407.885 243.043C413.288 231.935 416.045 219.727 415.94 207.376C415.836 195.024 412.873 182.865 407.284 171.85C401.694 160.835 393.63 151.264 383.723 143.887C373.816 136.51 362.335 131.527 350.18 129.329C338.026 127.13 325.527 127.777 313.664 131.217C301.8 134.657 290.895 140.797 281.801 149.156C272.708 157.516 265.674 167.867 261.25 179.4" stroke="#333333" stroke-width="16" stroke-linecap="round" stroke-linejoin="round"/>
<path d="M464 208H496" stroke="#C9A215" stroke-width="32" stroke-linecap="round" stroke-linejoin="round"/>
<path d="M336 48V80" stroke="#C9A215" stroke-width="32" stroke-linecap="round" stroke-linejoin="round"/>
<path d="M222.86 94.86L245.49 117.49" stroke="#C9A215" stroke-width="32" stroke-linecap="round" stroke-linejoin="round"/>
<path d="M449.14 94.86L426.51 117.49" stroke="#C9A215" stroke-width="32" stroke-linecap="round" stroke-linejoin="round"/>
<path d="M91.61 300.85C94.9523 300.332 98.0458 298.772 100.45 296.393C102.854 294.014 104.446 290.937 105 287.6C117.09 214.17 170.63 170 233 170C290.93 170 329.62 207.75 345.2 247.74C346.201 250.303 347.853 252.561 349.992 254.292C352.131 256.023 354.684 257.166 357.4 257.61C407.4 265.76 449 299.15 449 357.2C449 416.6 400.4 458 341 458H107C57.5 458 17 433.3 17 378.8C17 330.33 55.67 306.58 91.61 300.85Z" fill="white" stroke="#333333" stroke-width="16" stroke-linejoin="round"/>
</svg>
